# xmcd
#
# Track frame offsets: 
#        150
#        15365
#        31747
#        45350
#        60995
#        71740
#        87075
#        97985
#        114725
#        131820
#        145002
#        159970
#
# Disc length: 2342 seconds
#
# Revision: 2
# Processed by: cddbd v1.4PL0 Copyright (c) Steve Scherf et al.
# Submitted via: ExactAudioCopy v0.90b3
#
DISCID=8b09240c
DTITLE=Dolly Parton - 36 All-Time Greatest Hits (I Will Always Love Yo
DTITLE=u) - Disc 3
DYEAR=1900
DGENRE=Country
TTITLE0=Think About Love
TTITLE1=She Don't Love You (Like I Love You)
TTITLE2=Two Doors Down
TTITLE3=Heartbreaker
TTITLE4=Games People Play
TTITLE5=Old Flames Can't Hold A Candle To You
TTITLE6=All I Can Do
TTITLE7=The Great Pretender
TTITLE8=Down From Dover
TTITLE9=I Will Always Love You
TTITLE10=We'll Sing In The Sunshine
TTITLE11=Tennessee Homesick Blues
EXTD=
EXTT0=
EXTT1=
EXTT2=
EXTT3=
EXTT4=
EXTT5=
EXTT6=
EXTT7=
EXTT8=
EXTT9=
EXTT10=
EXTT11=
PLAYORDER=
